<svg xmlns="http://www.w3.org/2000/svg" viewBox="0 0 300 480" width="100%" height="100%">
  <defs>
    <linearGradient id="backGrad" x1="0%" y1="0%" x2="100%" y2="100%">
      <stop offset="0%" stop-color="#070814" />
      <stop offset="50%" stop-color="#140e2b" />
      <stop offset="100%" stop-color="#05060d" />
    </linearGradient>
    <radialGradient id="backGlow" cx="50%" cy="50%" r="50%">
      <stop offset="0%" stop-color="#d4af37" stop-opacity="0.3" />
      <stop offset="100%" stop-color="#000000" stop-opacity="0" />
    </radialGradient>
  </defs>

  <!-- Back Background -->
  <rect x="0" y="0" width="300" height="480" rx="16" fill="url(#backGrad)" stroke="#d4af37" stroke-width="2" />
  
  <!-- Outer Ornate Borders -->
  <rect x="10" y="10" width="280" height="460" rx="12" fill="none" stroke="#d4af37" stroke-width="1" stroke-opacity="0.5" />
  <rect x="16" y="16" width="268" height="448" rx="8" fill="none" stroke="#d4af37" stroke-width="1.5" stroke-opacity="0.9" />

  <!-- Symmetric Celestial Mandala -->
  <circle cx="150" cy="240" r="120" fill="url(#backGlow)" />
  <circle cx="150" cy="240" r="100" fill="none" stroke="#d4af37" stroke-width="1" stroke-opacity="0.4" stroke-dasharray="3 3" />
  <circle cx="150" cy="240" r="80" fill="none" stroke="#d4af37" stroke-width="1.5" stroke-opacity="0.7" />
  <circle cx="150" cy="240" r="60" fill="none" stroke="#d4af37" stroke-width="1" stroke-opacity="0.5" />

  <!-- Octagram Stars -->
  <polygon points="150,150 175,215 240,240 175,265 150,330 125,265 60,240 125,215" fill="none" stroke="#f5d061" stroke-width="1.5" stroke-opacity="0.8" />
  <polygon points="150,170 168,222 220,240 168,258 150,310 132,258 80,240 132,222" fill="none" stroke="#d4af37" stroke-width="1" stroke-opacity="0.5" />

  <!-- Center Eye / Sol Glyph -->
  <circle cx="150" cy="240" r="14" fill="#d4af37" fill-opacity="0.2" stroke="#f5d061" stroke-width="1.5" />
  <circle cx="150" cy="240" r="5" fill="#f5d061" />

  <!-- AstroVerse Brand Glyph -->
  <text x="150" y="440" fill="#d4af37" font-family="Cinzel, serif" font-size="9" font-weight="700" letter-spacing="3" text-anchor="middle" fill-opacity="0.8">
    ASTROVERSE TAROT
  </text>
  <text x="150" y="48" fill="#d4af37" font-family="Cinzel, serif" font-size="9" font-weight="700" letter-spacing="3" text-anchor="middle" fill-opacity="0.8">
    ASTROVERSE TAROT
  </text>
</svg>